<?xml version="1.0" standalone="no"?><!DOCTYPE svg PUBLIC "-//W3C//DTD SVG 1.1//EN" "http://www.w3.org/Graphics/SVG/1.1/DTD/svg11.dtd"><svg class="icon" width="200px" height="200.00px" viewBox="0 0 1024 1024" version="1.1" xmlns="http://www.w3.org/2000/svg"><path d="M750 261.3H575.8l-1.8 0.6c-4.3 1.4-104.3 36.7-104.3 203.9l22.5 2.8c0.3-1.2 39.2-135.2 96.7-166.7h121.3v121.3l-63.5 54h64.4l38.9-38.9v-177z m-328.5 0h-177v174.2l0.6 1.8c1.4 4.3 36.7 104.4 203.9 104.4l2.8-22.5c-1.2-0.3-132.7-25.6-166.2-83l0.1-134.3 131.4-0.1 43.3 62.8v-64.4l-38.9-38.9z m124 225.3l-2.8 22.5c1.2 0.3 136 38.5 167.5 96v121.3H588.9l-54.8-62.8V728l38.9 38.9h177V592.7l-0.6-1.8c-1.4-4.3-36.7-104.3-203.9-104.3z m-197.7 64.3h-64.4l-38.9 38.9v177h174.2l1.8-0.6c4.3-1.4 104.4-36.7 104.4-203.9l-22.5-2.8c-0.3 1.2-37.9 135.4-95.3 166.8H285.7V605l62.1-54.1z" fill="#d81e06" /><path d="M497.9 86.5c235.8 0 427.6 191.8 427.6 427.6S733.7 941.7 497.9 941.7 70.3 749.9 70.3 514.1 262.1 86.5 497.9 86.5m0-38.9c-257.6 0-466.5 208.8-466.5 466.5s208.8 466.5 466.5 466.5 466.5-208.8 466.5-466.5S755.5 47.6 497.9 47.6z" fill="#d81e06" /></svg>