<?xml version="1.0" standalone="no"?><!DOCTYPE svg PUBLIC "-//W3C//DTD SVG 1.1//EN" "http://www.w3.org/Graphics/SVG/1.1/DTD/svg11.dtd"><svg class="icon" width="200px" height="200.00px" viewBox="0 0 1024 1024" version="1.1" xmlns="http://www.w3.org/2000/svg"><path d="M987.639 978.528c-0.73-19.487-2.796-38.817-6.071-58.036-6.666-39.11-18.46-76.608-35.38-112.472-29.576-62.684-71.575-115.63-125.583-158.991-42.498-34.12-89.72-59.655-141.532-76.645l-10.123-3.32c0.832-0.469 1.244-0.729 1.679-0.944 23.275-11.482 44.732-25.698 64.326-42.725 28.489-24.756 51.675-53.738 69.097-87.224 24.55-47.192 35.544-97.4 33.056-150.569-0.752-16.081-2.73-31.99-6.158-47.703-11.877-54.448-37.237-101.77-75.557-142.158-16.702-17.604-35.368-32.873-55.854-45.89C655.8 24.056 607.996 8.619 556.341 5.096c-14.304-0.975-28.617-0.8-42.932 0.278-16.047 1.21-31.908 3.57-47.535 7.334-52.197 12.577-97.954 37.217-137.111 73.946-25.514 23.93-46.212 51.562-61.879 82.853-23.098 46.132-33.448 94.997-30.996 146.57 0.674 14.158 2.31 28.177 5.034 42.078 10.722 54.715 35.185 102.514 72.748 143.583 25.168 27.518 54.618 49.466 88.024 66.08 0.694 0.344 1.634 0.417 1.963 1.429-10.59 3.303-21.062 6.821-31.37 10.815-10.4 4.03-20.66 8.394-30.732 13.19-57.11 27.196-106.47 64.607-147.994 112.34-22.23 25.555-41.276 53.303-57.16 83.215-19.637 36.98-33.725 75.978-42.23 116.974-3.736 18.013-6.417 36.189-7.704 54.552-0.488 6.974-1.065 13.949-1.261 20.932-0.18 6.395-0.816 12.836 0.308 19.2 2.17 12.296 13.941 20.951 26.932 19.94 12.277-0.955 22.282-11.378 22.649-23.585 0.244-8.156 0.371-16.312 0.818-24.464a371.646 371.646 0 0 1 3.766-36.23c3.745-24.304 9.642-48.087 17.893-71.268 18.925-53.175 47.94-100.148 86.842-141.012 25.832-27.136 54.943-50.172 87.25-69.149 27.754-16.303 57.044-29.092 87.881-38.343 21.795-6.54 43.964-11.24 66.556-13.986 14.556-1.77 29.14-2.994 43.815-2.949 0.972-0.018 1.824-0.27 2.709-0.174 5.47 0.088 7.868 0.061 8.562-0.064 0.633 0.034 1.266 0.096 1.894 0.239 5.16 0.023 10.31 0.146 15.47 0.42 17.222 0.915 34.294 2.956 51.263 6.026 35.414 6.406 69.344 17.398 101.754 32.998 53.108 25.564 98.51 61.04 136.067 106.478 32.69 39.552 56.764 83.825 72.21 132.768 8.061 25.545 13.315 51.674 16.045 78.31 1.351 13.178 1.773 26.41 2 39.648 0.24 13.873 11.305 24.48 25.406 24.387 13.532-0.089 24.649-11.18 24.668-24.694 0.01-5.744-0.11-11.486-0.325-17.233zM580.864 545.322c-14.13 2.512-28.391 3.6-42.719 4.014-0.442 0.013-1.513 0.013-2.615 0.103-0.977-0.072-2.193-0.055-2.536-0.055-2.174 0-4.334 0.182-6.434-0.117-9.71 0.533-18.632-1.585-27.865-2.91-26.55-3.812-51.726-12.037-75.702-23.928-10.302-5.11-20.121-11.093-29.609-17.63-21.931-15.112-41.004-33.21-57.102-54.414-17.287-22.772-30.306-47.755-38.91-75.062-6.5-20.63-10.141-41.752-11.12-63.302-0.653-14.4 0.071-28.802 2.042-43.105 4.15-30.12 13.427-58.582 28.154-85.18 14.751-26.642 33.726-49.88 57.012-69.57 20.527-17.361 43.208-31.15 68.109-41.27 26.408-10.731 53.916-16.677 82.337-18.116 10.878-0.55 21.822-0.49 32.706 0.464 11.789 1.035 23.48 2.728 35.047 5.306 25.496 5.681 49.556 15.032 72.074 28.25 20.221 11.869 38.505 26.198 54.698 43.233 9.677 10.18 18.486 21.009 26.347 32.615 13.833 20.425 24.35 42.436 31.532 66.058 6.117 20.119 9.526 40.694 10.433 61.658 0.44 10.138 0.063 20.294-0.808 30.438-1.1 12.818-3.132 25.464-6.228 37.927-5.514 22.203-13.92 43.265-25.37 63.1-14.51 25.14-32.768 47.152-54.951 65.868-16.765 14.145-35.032 25.964-54.9 35.333-20.324 9.58-41.51 16.36-63.622 20.292z" fill="#d81e06" /></svg>